<svg class="fill-current" viewBox="0 0 208 122" xmlns="http://www.w3.org/2000/svg">
<path d="M41.9036 7.99934C35.758 18.5728 30.5048 35.1678 30.5032 51.5081C30.5011 73.8689 41.6778 86.3045 58.1585 86.3061C73.6992 86.3077 82.7253 76.1808 92.6174 53.3621C105.172 23.3459 123.697 3.73773 150.449 3.73988C183.016 3.74311 207.86 29.5102 207.856 71.4418C207.854 90.6472 203.447 105.36 198.687 114.326L169.676 106.371C173.422 99.6257 178.439 87.2177 178.441 70.687C178.443 48.8702 166.042 39.3299 154.117 39.3288C138.606 39.3272 131.387 49.911 120.225 74.9211C105.888 107.141 87.7219 121.987 60.945 121.984C27.4374 121.982 0.837183 97.0758 0.842042 49.8272C0.843134 30.3325 6.3729 10.2891 12.3375 0.686157L41.9036 7.99934Z"/>
</svg>